<svg xmlns="http://www.w3.org/2000/svg" viewBox="0 0 192 192" width="192" height="192">
  <defs>
    <linearGradient id="bgGradient" x1="0%" y1="0%" x2="100%" y2="100%">
      <stop offset="0%" style="stop-color:#2563eb;stop-opacity:1" />
      <stop offset="100%" style="stop-color:#1d4ed8;stop-opacity:1" />
    </linearGradient>
    <linearGradient id="signalGradient" x1="0%" y1="0%" x2="100%" y2="0%">
      <stop offset="0%" style="stop-color:#10b981;stop-opacity:1" />
      <stop offset="100%" style="stop-color:#059669;stop-opacity:1" />
    </linearGradient>
    <filter id="shadow" x="-50%" y="-50%" width="200%" height="200%">
      <feDropShadow dx="3" dy="3" stdDeviation="3" flood-opacity="0.3"/>
    </filter>
  </defs>

  <!-- Background Circle -->
  <circle cx="96" cy="96" r="88" fill="url(#bgGradient)" stroke="#1e40af" stroke-width="6" filter="url(#shadow)"/>

  <!-- Sensor/Antenna Base -->
  <rect x="87" y="135" width="18" height="36" rx="6" fill="#e5e7eb" stroke="#9ca3af" stroke-width="1.5"/>

  <!-- Signal Waves -->
  <g stroke="url(#signalGradient)" stroke-width="7.5" fill="none" stroke-linecap="round">
    <!-- Inner wave -->
    <path d="M 75 105 Q 96 84 117 105" opacity="0.9"/>
    <!-- Middle wave -->
    <path d="M 63 114 Q 96 69 129 114" opacity="0.7"/>
    <!-- Outer wave -->
    <path d="M 51 123 Q 96 54 141 123" opacity="0.5"/>
  </g>

  <!-- Chart Bars (Status Indicators) -->
  <g fill="#fbbf24" stroke="#f59e0b" stroke-width="1.5">
    <!-- Bar 1 - High -->
    <rect x="36" y="60" width="9" height="48" rx="3"/>
    <!-- Bar 2 - Medium -->
    <rect x="48" y="78" width="9" height="30" rx="3"/>
    <!-- Bar 3 - Low -->
    <rect x="60" y="90" width="9" height="18" rx="3"/>
  </g>

  <g fill="#10b981" stroke="#059669" stroke-width="1.5">
    <!-- Bar 4 - Medium -->
    <rect x="123" y="78" width="9" height="30" rx="3"/>
    <!-- Bar 5 - High -->
    <rect x="135" y="66" width="9" height="42" rx="3"/>
    <!-- Bar 6 - Very High -->
    <rect x="147" y="54" width="9" height="54" rx="3"/>
  </g>

  <!-- Center Dot (Active Sensor) -->
  <circle cx="96" cy="105" r="9" fill="#fbbf24" stroke="#f59e0b" stroke-width="3"/>
  <circle cx="96" cy="105" r="4.5" fill="#ffffff" opacity="0.8"/>

  <!-- Status Light -->
  <circle cx="144" cy="48" r="12" fill="#10b981" stroke="#059669" stroke-width="3" opacity="0.8"/>
  <circle cx="144" cy="48" r="6" fill="#ffffff" opacity="0.6"/>
</svg>
